<?xml version="1.0" standalone="no"?>
<!DOCTYPE svg PUBLIC "-//W3C//DTD SVG 20010904//EN"
 "http://www.w3.org/TR/2001/REC-SVG-20010904/DTD/svg10.dtd">
<svg version="1.0" xmlns="http://www.w3.org/2000/svg"
 width="4001.000000pt" height="4000.000000pt" viewBox="0 0 4001.000000 4000.000000"
 preserveAspectRatio="xMidYMid meet">

<g transform="translate(0.000000,4000.000000) scale(0.100000,-0.100000)"
fill="#000000" stroke="none">
<path d="M19810 36519 c-104 -12 -256 -45 -364 -80 -125 -40 -352 -155 -466
-236 -119 -85 -317 -281 -397 -393 -120 -169 -16438 -23947 -16491 -24030 -71
-113 -125 -221 -115 -230 4 -4 2130 -695 4723 -1535 2593 -840 4720 -1529
4725 -1531 20 -7 555 753 950 1351 2080 3143 3973 6879 5357 10570 1534 4091
2496 8210 2858 12225 85 945 143 1990 155 2795 3 193 8 481 11 641 l5 291 -73
30 c-282 118 -591 164 -878 132z"/>
<path d="M21210 36020 c0 -14 13 -160 30 -325 60 -620 112 -1401 142 -2135 20
-488 17 -2061 -5 -2560 -71 -1597 -212 -2974 -457 -4460 -844 -5105 -2865
-10234 -5669 -14385 -1005 -1490 -2081 -2773 -2921 -3485 -123 -105 -285 -227
-410 -312 -30 -20 -54 -10 230 -92 1872 -541 3866 -895 5835 -1036 787 -56
1418 -75 2270 -67 650 6 847 12 1380 42 2328 132 4651 558 6890 1261 313 99
9496 3074 9507 3081 10 5 -59 133 -137 253 -129 199 -16451 23969 -16511
24045 -35 44 -88 107 -118 140 -50 54 -55 58 -56 35z"/>
<path d="M1836 11098 c-15 -46 -19 -367 -7 -461 61 -461 289 -876 635 -1153
147 -118 867 -589 1496 -979 4734 -2936 9448 -4587 14145 -4954 1809 -142
3631 -91 5430 150 4383 589 8726 2292 13075 5129 394 257 854 570 946 644 242
194 442 484 543 786 74 218 96 377 88 628 -6 188 -13 236 -31 228 -6 -2 -2081
-870 -4611 -1929 l-4600 -1925 -290 -90 c-3447 -1074 -7015 -1491 -10610
-1241 -2247 156 -4494 582 -6655 1262 -214 67 -654 248 -4880 1996 -2555 1058
-4650 1925 -4656 1928 -6 2 -15 -6 -18 -19z"/>
</g>
</svg>
