<?xml version="1.0" standalone="no"?>
<!DOCTYPE svg PUBLIC "-//W3C//DTD SVG 20010904//EN"
 "http://www.w3.org/TR/2001/REC-SVG-20010904/DTD/svg10.dtd">
<svg version="1.0" xmlns="http://www.w3.org/2000/svg"
 width="4001.000000pt" height="4001.000000pt" viewBox="0 0 4001.000000 4001.000000"
 preserveAspectRatio="xMidYMid meet">

<g transform="translate(0.000000,4001.000000) scale(0.100000,-0.100000)"
fill="#000000" stroke="none">
<path d="M7259 33910 c-172 -26 -325 -146 -386 -302 -9 -24 -17 -44 -18 -46
-2 -2 -22 5 -46 15 -66 27 -204 24 -292 -6 -162 -55 -281 -180 -333 -351 -21
-70 -18 -209 7 -282 11 -34 29 -74 40 -89 25 -36 24 -46 -6 -61 -42 -23 -123
-108 -155 -163 -113 -198 -79 -448 84 -611 72 -72 158 -119 250 -136 l66 -12
-6 -51 c-3 -29 1 -80 10 -123 59 -279 346 -458 621 -387 75 20 164 67 205 110
l32 33 55 -44 c67 -55 112 -78 190 -98 263 -68 540 90 617 353 9 30 16 89 16
132 l0 77 47 7 c167 25 319 153 383 323 27 70 37 206 21 282 -23 107 -119 257
-190 295 -55 30 -56 30 -34 61 120 177 87 441 -77 605 -69 69 -126 106 -212
135 -68 24 -224 24 -286 1 -40 -15 -43 -15 -49 1 -73 223 -315 368 -554 332z"/>
<path d="M14563 33909 c-187 -31 -340 -159 -396 -331 -6 -16 -9 -16 -49 -1
-63 23 -218 23 -287 -1 -226 -78 -373 -290 -359 -516 6 -82 33 -171 69 -222
16 -22 19 -33 10 -36 -61 -20 -176 -155 -211 -249 -28 -72 -37 -206 -21 -286
41 -192 201 -354 387 -389 l62 -11 4 -104 c4 -96 7 -108 46 -187 149 -299 553
-382 788 -161 l37 35 42 -39 c107 -99 287 -144 435 -110 143 33 279 140 344
272 39 80 60 186 51 251 l-7 42 64 12 c335 62 510 459 332 753 -32 54 -103
127 -153 160 l-24 15 38 77 c33 68 38 87 43 170 6 113 -7 177 -54 268 -62 119
-165 207 -293 251 -85 29 -225 32 -289 5 -23 -9 -44 -17 -46 -17 -3 0 -10 16
-16 36 -53 159 -215 287 -397 314 -77 11 -79 11 -150 -1z"/>
<path d="M21869 33910 c-138 -21 -264 -100 -339 -212 -22 -33 -45 -78 -51 -99
-7 -21 -13 -39 -14 -39 -2 0 -22 7 -45 15 -145 51 -319 15 -458 -95 -176 -139
-237 -399 -139 -600 18 -36 33 -68 35 -72 2 -4 -10 -14 -27 -22 -93 -48 -190
-200 -212 -332 -45 -259 139 -527 393 -576 l66 -12 -5 -53 c-21 -199 125 -414
335 -493 160 -61 364 -25 492 88 l45 40 41 -37 c151 -134 371 -158 564 -63 30
15 85 57 121 93 104 103 156 231 147 363 l-4 62 63 12 c99 19 170 58 249 136
79 78 113 138 138 237 49 196 -24 405 -179 517 -27 20 -51 36 -53 37 -1 1 13
31 32 67 71 136 71 292 -1 438 -108 221 -376 342 -592 266 l-39 -15 -35 72
c-19 40 -51 91 -71 114 -104 119 -294 187 -457 163z"/>
<path d="M29195 33914 c-175 -24 -329 -133 -397 -281 -17 -37 -32 -69 -33 -71
-1 -1 -19 5 -41 15 -59 26 -221 23 -298 -6 -158 -57 -284 -191 -328 -350 -34
-122 -18 -261 42 -366 l29 -51 -35 -19 c-46 -25 -129 -115 -158 -174 -56 -110
-72 -252 -41 -370 47 -181 203 -330 382 -363 l61 -11 1 -82 c0 -141 50 -253
159 -357 184 -175 480 -185 660 -23 l52 47 50 -45 c85 -76 194 -117 315 -117
91 1 144 13 231 56 168 83 275 254 276 440 l1 81 61 11 c174 33 324 169 378
345 17 57 20 87 16 175 -4 97 -8 115 -40 184 -36 76 -117 172 -178 210 l-25
15 27 49 c145 269 5 614 -290 716 -85 29 -235 31 -296 5 -22 -10 -40 -16 -41
-15 -1 2 -16 34 -33 71 -56 121 -189 233 -317 265 -50 13 -150 21 -190 16z"/>
<path d="M36484 33910 c-169 -25 -312 -128 -379 -271 -14 -30 -25 -60 -25 -66
0 -16 1 -16 -49 2 -242 85 -536 -71 -622 -329 -42 -128 -30 -275 31 -383 17
-30 30 -56 28 -57 -106 -71 -154 -124 -199 -219 -55 -119 -62 -257 -19 -381
56 -165 206 -296 372 -328 l64 -12 -4 -59 c-9 -126 45 -263 143 -363 188 -191
492 -206 689 -33 l41 37 41 -37 c119 -105 293 -146 449 -106 228 60 400 283
383 499 l-5 62 65 12 c255 49 438 316 394 575 -23 129 -86 237 -181 309 -31
23 -57 43 -58 43 -2 1 13 33 32 71 122 245 16 543 -240 670 -116 57 -246 68
-356 29 -50 -18 -49 -18 -49 -2 0 6 -13 40 -29 73 -32 69 -113 156 -182 196
-96 57 -230 84 -335 68z"/>
<path d="M4230 33696 c-96 -41 -2036 -971 -2049 -982 -7 -6 512 -574 526 -574
20 0 197 91 326 167 574 340 1014 755 1324 1248 59 95 61 100 45 119 -19 21
-73 46 -99 46 -10 0 -43 -11 -73 -24z"/>
<path d="M11570 33713 c-20 -8 -2061 -983 -2078 -992 -8 -5 73 -102 250 -298
l262 -291 121 60 c547 274 1057 698 1399 1162 89 121 196 287 196 304 0 31
-110 72 -150 55z"/>
<path d="M17840 33221 c-575 -275 -1045 -504 -1045 -510 0 -15 505 -571 519
-571 39 0 374 187 557 311 473 321 827 678 1101 1114 54 85 56 91 40 109 -21
23 -73 46 -104 46 -13 0 -493 -225 -1068 -499z"/>
<path d="M26090 33671 c-116 -53 -1912 -911 -1967 -939 l-35 -18 263 -291 262
-292 119 60 c240 120 522 303 751 487 149 119 435 401 543 537 158 197 310
426 300 451 -7 17 -82 53 -111 54 -11 0 -67 -22 -125 -49z"/>
<path d="M33130 33546 c-1346 -642 -1725 -825 -1727 -832 -4 -13 505 -574 521
-574 18 0 236 113 351 182 557 332 1007 762 1313 1254 l51 82 -22 20 c-25 24
-69 42 -100 42 -12 0 -186 -78 -387 -174z"/>
<path d="M4383 33515 c-207 -407 -478 -730 -845 -1007 -251 -190 -569 -349
-782 -393 l-29 -6 59 -60 c188 -192 456 -368 729 -477 166 -67 217 -80 850
-216 138 -30 252 -52 253 -51 6 5 -167 2223 -176 2270 l-8 40 -51 -100z"/>
<path d="M11691 33522 c-209 -423 -546 -810 -941 -1081 -211 -145 -469 -272
-636 -314 l-85 -20 43 -45 c122 -125 325 -277 506 -377 233 -128 398 -181 927
-294 l410 -88 3 34 c4 46 -168 2256 -177 2265 -4 4 -26 -32 -50 -80z"/>
<path d="M18996 33522 c-141 -281 -315 -521 -538 -743 -333 -332 -733 -575
-1096 -666 l-33 -8 103 -94 c281 -256 602 -434 941 -522 101 -26 851 -188 855
-184 4 4 -177 2297 -182 2302 -3 3 -25 -35 -50 -85z"/>
<path d="M26297 33519 c-152 -323 -453 -699 -750 -936 -279 -223 -600 -400
-825 -456 l-85 -21 93 -89 c296 -280 659 -469 1085 -562 658 -143 710 -153
713 -132 6 33 -170 2271 -179 2281 -4 5 -27 -34 -52 -85z"/>
<path d="M33600 33518 c-156 -331 -430 -673 -745 -931 -271 -223 -637 -422
-859 -467 l-58 -12 33 -35 c49 -51 203 -181 284 -240 205 -149 483 -281 728
-344 155 -40 842 -186 849 -180 4 3 -33 517 -82 1141 -49 624 -90 1141 -90
1148 0 31 -20 5 -60 -80z"/>
<path d="M2139 32669 c-7 -13 -13 -44 -13 -69 -1 -37 11 -66 67 -170 426 -780
1012 -1179 1837 -1251 173 -15 467 -6 509 16 34 17 75 66 64 75 -4 4 -177 28
-383 54 -206 26 -411 56 -455 67 -394 97 -768 309 -1047 592 -48 49 -189 222
-314 385 -125 163 -233 303 -239 311 -11 11 -15 9 -26 -10z"/>
<path d="M9441 32664 c-26 -57 -14 -103 60 -238 359 -659 843 -1050 1479
-1195 189 -43 316 -55 560 -56 129 0 252 4 272 8 39 8 98 56 98 79 0 10 -93
25 -387 62 -223 28 -426 59 -478 73 -287 76 -568 213 -806 394 -168 127 -277
245 -529 574 -133 173 -245 317 -249 320 -5 2 -13 -7 -20 -21z"/>
<path d="M16745 32657 c-24 -58 -19 -84 44 -201 146 -276 294 -479 488 -673
426 -423 990 -631 1654 -610 120 4 188 10 211 20 37 16 84 66 71 77 -4 4 -177
28 -383 54 -206 26 -418 58 -470 71 -339 86 -649 248 -916 479 -153 132 -164
144 -429 491 -131 171 -242 314 -246 319 -5 6 -15 -6 -24 -27z"/>
<path d="M24050 32661 c-28 -70 -6 -132 128 -356 129 -216 252 -374 413 -530
338 -329 712 -509 1204 -582 90 -13 183 -17 370 -17 220 0 254 2 287 18 39 19
75 63 61 76 -4 4 -177 29 -383 54 -206 26 -419 59 -472 72 -282 70 -564 208
-811 397 -169 128 -278 246 -534 580 -134 174 -246 317 -247 317 -2 0 -9 -13
-16 -29z"/>
<path d="M31355 32661 c-24 -48 -18 -85 30 -180 205 -408 513 -765 840 -973
300 -190 610 -291 1015 -329 156 -15 464 -6 513 14 36 16 82 66 70 77 -4 4
-177 28 -383 54 -206 26 -418 58 -471 71 -373 94 -709 280 -999 553 -71 66
-156 168 -325 388 -125 165 -239 312 -251 327 l-23 28 -16 -30z"/>
<path d="M3555 30350 c-168 -26 -334 -167 -388 -332 -6 -16 -9 -16 -49 -1 -62
24 -216 23 -288 -1 -223 -75 -372 -290 -358 -516 6 -81 33 -171 68 -220 12
-17 21 -32 19 -34 -2 -1 -21 -13 -41 -25 -87 -52 -175 -185 -199 -299 -16 -79
-6 -213 21 -284 31 -84 91 -166 158 -221 71 -56 124 -81 210 -97 l62 -13 0
-76 c0 -230 156 -427 385 -486 153 -39 321 -1 433 100 l52 47 44 -40 c187
-172 496 -159 684 30 101 101 164 265 147 382 l-7 42 64 12 c346 64 518 484
317 776 -37 54 -85 102 -143 140 -18 12 -17 16 19 89 33 68 38 87 43 170 6
114 -7 177 -57 272 -92 179 -289 289 -484 271 -38 -3 -84 -13 -104 -21 -19 -8
-37 -15 -38 -15 -2 0 -9 17 -16 38 -67 209 -313 347 -554 312z"/>
<path d="M10885 30353 c-117 -17 -220 -68 -302 -151 -50 -49 -113 -156 -113
-189 0 -16 -3 -16 -47 2 -92 39 -238 28 -352 -25 -257 -121 -368 -427 -245
-674 19 -38 33 -69 32 -70 -2 -1 -28 -21 -59 -44 -136 -102 -208 -284 -181
-459 34 -215 195 -387 400 -425 l60 -11 -5 -56 c-16 -170 101 -371 264 -459
189 -100 415 -77 567 59 l41 37 30 -28 c51 -49 144 -98 215 -114 182 -42 353
7 483 137 101 101 152 229 145 361 l-3 64 65 11 c95 18 189 71 261 149 66 70
99 130 124 227 49 189 -31 414 -183 517 -26 17 -48 32 -50 33 -1 1 13 31 32
67 139 267 -7 601 -306 704 -69 24 -224 25 -286 1 -40 -15 -43 -15 -49 1 -46
142 -174 267 -317 311 -65 20 -171 32 -221 24z"/>
<path d="M18162 30349 c-159 -28 -306 -141 -367 -282 l-29 -65 -40 15 c-67 25
-217 23 -298 -5 -205 -71 -349 -270 -348 -484 1 -82 14 -139 53 -217 l31 -64
-24 -15 c-14 -9 -51 -41 -82 -73 -93 -93 -138 -205 -138 -344 0 -243 169 -454
397 -497 l61 -11 1 -82 c0 -141 55 -262 162 -360 191 -173 485 -179 665 -13
l44 41 44 -41 c182 -167 484 -160 668 16 109 104 160 217 160 358 l1 81 61 11
c175 33 329 177 382 357 12 44 15 84 12 165 -4 99 -7 111 -45 191 -40 82 -102
154 -173 201 l-25 16 27 49 c105 193 68 428 -94 592 -129 131 -335 183 -495
127 l-42 -15 -12 37 c-42 130 -190 262 -335 301 -60 16 -164 21 -222 10z"/>
<path d="M25473 30349 c-80 -14 -157 -46 -221 -93 -72 -53 -114 -106 -152
-190 l-30 -65 -42 15 c-196 69 -453 -31 -567 -220 -93 -155 -102 -327 -26
-480 19 -38 34 -70 32 -71 -124 -83 -180 -152 -223 -276 -26 -75 -26 -233 0
-308 61 -178 208 -311 378 -342 l64 -12 -4 -60 c-19 -264 226 -517 501 -517
125 0 261 52 342 131 l31 29 29 -30 c120 -118 343 -162 507 -100 208 78 352
286 336 485 l-5 62 59 11 c260 48 444 313 400 575 -14 83 -56 178 -104 238
-25 31 -101 95 -135 114 -2 1 13 33 31 71 145 294 -41 654 -369 715 -70 13
-177 6 -228 -16 -44 -18 -47 -18 -47 -2 0 26 -52 121 -91 168 -105 126 -302
197 -466 168z"/>
<path d="M32773 30349 c-172 -29 -332 -159 -383 -313 l-11 -35 -41 15 c-161
57 -370 3 -497 -127 -161 -165 -198 -398 -93 -593 26 -48 26 -49 7 -60 -44
-25 -151 -144 -177 -197 -145 -300 31 -662 351 -721 l63 -12 -5 -40 c-4 -23
-1 -72 4 -111 42 -284 344 -483 622 -410 78 20 150 58 203 107 l43 40 57 -50
c72 -65 168 -102 279 -109 205 -14 394 97 487 283 39 79 42 91 46 188 l5 104
59 11 c163 28 304 150 368 318 28 70 37 205 21 284 -24 117 -101 234 -197 300
l-44 30 21 30 c32 45 61 137 67 211 11 149 -41 283 -152 394 -77 77 -142 114
-246 140 -73 19 -178 14 -247 -10 l-41 -14 -28 65 c-59 140 -216 258 -374 283
-74 11 -94 11 -167 -1z"/>
<path d="M7825 30131 c-706 -335 -2022 -966 -2029 -972 -10 -9 500 -579 519
-579 17 0 215 102 340 175 129 75 374 244 491 337 346 276 606 564 826 913 54
85 56 91 40 109 -21 23 -73 46 -104 46 -13 0 -50 -13 -83 -29z"/>
<path d="M15100 30117 c-119 -55 -1903 -908 -1965 -940 l-46 -23 257 -284
c141 -157 262 -286 269 -288 7 -2 60 20 117 49 258 129 556 326 808 533 120
98 391 372 486 491 130 162 304 417 304 444 0 18 -61 53 -98 57 -29 4 -58 -5
-132 -39z"/>
<path d="M22275 30055 c-1074 -510 -1870 -894 -1870 -903 0 -16 504 -572 519
-572 6 0 61 25 122 56 651 334 1193 819 1542 1380 l51 82 -22 20 c-25 24 -69
42 -100 42 -12 0 -121 -47 -242 -105z"/>
<path d="M29730 30126 c-82 -36 -1878 -894 -1973 -943 l-59 -29 256 -285 c141
-156 263 -285 270 -287 18 -4 176 75 324 162 419 245 802 565 1080 902 135
164 320 443 307 463 -10 17 -82 51 -107 51 -13 0 -57 -15 -98 -34z"/>
<path d="M37025 30123 c-1364 -650 -2010 -962 -2010 -971 0 -14 491 -561 510
-568 15 -6 196 83 335 164 191 112 398 257 580 406 109 89 396 376 487 486
144 176 320 438 310 464 -9 23 -53 47 -94 52 -30 4 -56 -3 -118 -33z"/>
<path d="M7996 29962 c-273 -551 -747 -1021 -1297 -1286 -101 -49 -254 -105
-333 -121 l-29 -6 59 -60 c223 -228 563 -434 879 -532 171 -53 949 -219 953
-203 3 13 -176 2297 -181 2302 -1 2 -25 -40 -51 -94z"/>
<path d="M15311 29985 c-43 -97 -153 -283 -241 -405 -246 -344 -579 -641 -945
-843 -167 -92 -304 -146 -459 -182 l-29 -6 44 -46 c124 -127 329 -280 506
-377 243 -132 391 -179 928 -294 l410 -88 3 28 c4 39 -167 2248 -176 2271 -6
15 -15 1 -41 -58z"/>
<path d="M29901 29953 c-270 -544 -715 -990 -1261 -1264 -105 -53 -277 -116
-365 -135 l-30 -6 94 -89 c241 -230 528 -398 861 -503 63 -21 300 -76 525
-125 378 -80 410 -86 413 -69 5 25 -167 2236 -176 2271 -6 26 -11 20 -61 -80z"/>
<path d="M22605 29968 c-151 -327 -444 -695 -755 -945 -274 -221 -659 -431
-841 -459 -24 -4 -50 -10 -57 -13 -16 -9 157 -168 283 -261 233 -172 494 -296
764 -365 131 -33 798 -175 823 -175 18 0 19 5 14 58 -4 31 -42 521 -86 1087
-89 1152 -89 1155 -100 1155 -4 0 -24 -37 -45 -82z"/>
<path d="M37211 29963 c-242 -492 -633 -910 -1118 -1194 -190 -111 -368 -185
-517 -214 l-29 -6 34 -36 c50 -52 204 -181 284 -239 213 -154 484 -282 728
-345 148 -38 848 -186 851 -180 2 3 -36 515 -85 1136 -49 622 -89 1138 -89
1148 0 35 -16 15 -59 -70z"/>
<path d="M5745 29097 c-23 -56 -19 -79 36 -184 395 -755 954 -1173 1716 -1279
158 -23 575 -26 635 -5 39 13 95 69 81 81 -4 4 -177 29 -383 55 -206 25 -411
55 -455 66 -391 96 -767 309 -1046 591 -47 48 -189 221 -314 385 -125 164
-234 304 -241 312 -12 13 -16 9 -29 -22z"/>
<path d="M13050 29100 c-28 -67 -14 -108 106 -317 352 -612 847 -989 1470
-1118 198 -41 296 -50 549 -49 211 0 244 3 274 18 36 19 70 53 71 71 0 6 -161
31 -382 59 -392 49 -493 70 -683 136 -196 69 -429 196 -604 329 -171 130 -279
248 -532 577 -133 173 -245 316 -249 319 -4 3 -13 -8 -20 -25z"/>
<path d="M20356 29102 c-25 -48 -19 -86 24 -171 136 -272 311 -515 514 -715
327 -321 729 -515 1211 -582 160 -23 577 -26 637 -5 39 13 95 69 81 81 -4 4
-177 29 -383 54 -206 26 -411 56 -455 67 -390 96 -743 294 -1048 588 -32 31
-169 200 -304 376 -135 176 -249 324 -253 329 -5 4 -15 -5 -24 -22z"/>
<path d="M27662 29108 c-28 -57 -24 -80 27 -183 192 -391 496 -747 818 -960
304 -201 633 -310 1048 -346 152 -13 445 -6 492 12 32 12 83 57 83 73 0 7
-148 30 -382 59 -226 29 -422 59 -478 73 -297 78 -569 211 -813 397 -168 127
-278 246 -534 580 -135 174 -246 317 -247 317 -1 0 -8 -10 -14 -22z"/>
<path d="M34966 29108 c-30 -43 -20 -92 44 -217 68 -134 214 -358 310 -476
448 -553 1081 -829 1838 -801 111 4 185 11 206 20 33 14 66 50 66 71 0 7 -144
29 -377 59 -208 26 -414 56 -458 67 -294 73 -589 214 -825 395 -189 144 -272
233 -515 551 -126 164 -239 310 -251 326 l-23 27 -15 -22z"/>
<path d="M7207 26725 c-139 -38 -263 -140 -319 -262 -17 -37 -32 -69 -34 -71
-1 -2 -26 4 -55 12 -108 33 -250 16 -364 -42 -107 -54 -225 -205 -254 -327
-28 -113 -8 -260 46 -354 l26 -45 -23 -15 c-63 -42 -143 -135 -175 -204 -71
-149 -69 -297 6 -447 75 -149 243 -269 377 -270 l34 0 -7 -51 c-15 -109 36
-260 121 -357 183 -209 512 -235 704 -56 l47 44 24 -26 c145 -156 418 -182
615 -58 147 92 223 224 232 400 l5 102 47 4 c27 3 83 21 125 41 184 88 295
279 282 487 -9 148 -77 281 -186 360 l-59 43 29 56 c58 111 72 219 44 340 -41
174 -176 319 -344 371 -77 24 -206 27 -277 5 -27 -8 -50 -15 -50 -15 -1 0 -18
33 -37 74 -58 123 -184 226 -321 262 -64 17 -195 17 -259 -1z"/>
<path d="M14520 26729 c-96 -26 -212 -98 -266 -165 -34 -43 -84 -132 -84 -151
0 -21 -15 -22 -65 -8 -70 22 -200 19 -278 -5 -298 -92 -446 -452 -297 -717
l30 -53 -30 -15 c-42 -22 -127 -109 -152 -158 -47 -88 -60 -133 -65 -225 -11
-181 59 -335 201 -442 60 -45 170 -90 221 -90 l35 0 0 -87 c1 -143 47 -251
154 -355 95 -93 213 -139 356 -140 119 -1 230 39 315 114 l46 41 27 -26 c42
-40 139 -95 201 -113 80 -23 212 -21 292 6 218 74 352 254 352 473 l0 87 31 0
c82 0 183 49 269 130 124 115 181 278 156 441 -21 137 -102 271 -203 335 l-44
28 20 29 c66 92 87 272 48 399 -50 162 -183 293 -349 342 -69 20 -192 21 -260
0 -29 -8 -54 -14 -55 -12 -2 2 -17 34 -34 71 -57 124 -181 225 -323 262 -60
16 -195 18 -249 4z"/>
<path d="M21817 26725 c-152 -42 -284 -157 -337 -295 -7 -19 -14 -36 -16 -38
-1 -2 -28 4 -60 14 -43 12 -82 15 -154 12 -88 -4 -105 -9 -182 -46 -254 -123
-364 -425 -243 -667 l35 -70 -21 -15 c-150 -107 -224 -245 -224 -420 0 -115
25 -198 88 -291 72 -108 207 -194 321 -206 l55 -6 -6 -62 c-7 -74 8 -146 48
-231 138 -295 549 -383 779 -168 l47 44 29 -31 c94 -98 245 -147 400 -128 253
31 450 253 443 499 l-2 75 54 8 c82 11 194 71 261 138 195 199 195 527 1 710
-32 30 -69 61 -82 70 l-25 16 20 29 c80 118 93 283 35 434 -47 124 -176 250
-302 296 -68 25 -223 30 -293 10 -32 -10 -59 -16 -60 -14 -1 2 -10 24 -20 51
-47 126 -174 236 -325 281 -65 19 -196 20 -264 1z"/>
<path d="M29130 26729 c-149 -40 -292 -159 -337 -279 -9 -25 -20 -49 -23 -53
-4 -5 -29 -1 -54 7 -28 10 -80 16 -130 16 -380 0 -628 -409 -446 -736 l29 -51
-49 -32 c-193 -125 -258 -417 -144 -642 30 -60 112 -149 172 -188 58 -37 153
-71 198 -71 l33 0 -1 -68 c-1 -99 10 -148 47 -228 37 -76 113 -164 183 -207
185 -117 424 -104 590 31 l54 44 26 -25 c42 -40 140 -95 201 -113 122 -36 285
-14 400 54 157 92 262 294 243 470 -4 42 -4 42 28 42 92 0 220 68 303 160 88
98 127 203 127 341 0 161 -66 298 -187 390 l-61 47 23 34 c55 81 80 237 55
347 -31 139 -140 285 -255 343 -114 58 -271 76 -371 42 -52 -17 -56 -15 -74
38 -15 50 -87 146 -137 186 -52 41 -133 81 -197 98 -58 16 -193 17 -246 3z"/>
<path d="M36409 26721 c-128 -41 -245 -137 -299 -245 -17 -32 -30 -65 -30 -73
0 -16 0 -16 -68 3 -41 12 -81 15 -154 12 -91 -5 -105 -8 -182 -47 -131 -64
-220 -165 -267 -301 -43 -126 -23 -310 44 -404 l21 -29 -25 -16 c-13 -8 -52
-43 -87 -78 -191 -192 -188 -504 8 -704 67 -68 181 -127 261 -136 l55 -5 -4
-67 c-14 -247 187 -478 444 -510 150 -18 277 19 381 113 46 42 52 44 64 29 56
-67 174 -128 279 -143 303 -44 601 222 578 515 l-5 62 54 6 c109 11 247 98
316 199 142 206 122 474 -47 644 -34 33 -71 67 -83 75 l-23 14 35 70 c122 246
15 540 -241 667 -77 38 -91 41 -182 46 -73 3 -113 0 -154 -12 -70 -20 -65 -21
-73 12 -19 78 -123 202 -212 253 -120 69 -283 89 -404 50z"/>
<path d="M4205 26512 c-732 -347 -2003 -957 -2012 -966 -10 -9 36 -65 200
-247 116 -129 233 -259 259 -288 l47 -52 63 29 c105 48 315 168 468 269 269
177 416 297 641 522 211 212 345 378 488 605 67 106 67 112 10 142 -43 22 -98
17 -164 -14z"/>
<path d="M10645 26099 c-506 -242 -975 -466 -1043 -499 l-123 -59 262 -291
c144 -159 263 -290 266 -290 11 0 233 117 329 172 572 335 1047 788 1350 1287
l38 63 -32 29 c-67 60 -27 76 -1047 -412z"/>
<path d="M18700 26457 c-1019 -485 -1910 -913 -1910 -918 0 -4 418 -473 516
-578 2 -2 58 24 126 59 387 196 734 447 1034 745 219 219 339 366 491 604 79
123 79 127 22 157 -56 28 -96 18 -279 -69z"/>
<path d="M25141 26046 c-569 -273 -1038 -499 -1042 -503 -6 -6 397 -463 495
-561 l23 -24 104 52 c143 71 380 214 521 313 433 303 796 680 1043 1080 l48
79 -26 25 c-20 20 -38 27 -79 30 -52 4 -69 -4 -1087 -491z"/>
<path d="M32438 26042 c-571 -273 -1038 -499 -1038 -503 0 -6 420 -478 500
-562 17 -18 21 -17 131 38 567 284 1096 728 1436 1205 83 118 163 247 163 265
0 8 -15 24 -32 35 -74 45 -36 60 -1160 -478z"/>
<path d="M4373 26325 c-102 -204 -197 -347 -349 -530 -105 -127 -281 -300
-404 -399 -260 -208 -625 -405 -827 -447 -35 -7 -63 -16 -63 -19 0 -8 103
-106 175 -167 251 -212 575 -378 890 -457 121 -30 818 -176 822 -172 6 6 -165
2219 -175 2271 l-8 40 -61 -120z"/>
<path d="M11667 26305 c-242 -479 -655 -904 -1145 -1179 -136 -76 -292 -142
-402 -170 l-91 -23 94 -89 c271 -260 618 -448 1002 -543 44 -11 231 -52 415
-91 184 -39 345 -74 358 -77 20 -5 22 -2 22 33 0 72 -172 2259 -179 2266 -3 4
-37 -53 -74 -127z"/>
<path d="M18990 26339 c-278 -555 -753 -1024 -1303 -1284 -111 -52 -289 -115
-327 -115 -11 0 -20 -4 -20 -8 0 -18 181 -181 300 -268 207 -153 495 -289 749
-354 120 -30 833 -181 837 -177 6 5 -174 2298 -180 2304 -3 3 -28 -41 -56 -98z"/>
<path d="M26296 26343 c-192 -389 -477 -730 -836 -1002 -251 -190 -566 -353
-758 -392 -34 -7 -61 -16 -60 -19 2 -4 46 -47 98 -95 269 -250 595 -431 942
-520 179 -46 840 -186 847 -180 7 7 -168 2264 -177 2288 -5 13 -19 -7 -56 -80z"/>
<path d="M33602 26344 c-248 -494 -638 -909 -1115 -1188 -182 -107 -446 -216
-523 -216 -28 0 -27 -1 31 -61 257 -261 645 -479 1024 -573 132 -33 812 -178
817 -174 3 4 -174 2288 -180 2303 -1 6 -26 -36 -54 -91z"/>
<path d="M2142 25497 c-6 -7 -14 -31 -17 -52 -7 -46 28 -126 134 -304 344
-579 811 -941 1386 -1076 226 -53 293 -59 590 -60 245 0 284 2 311 17 30 17
70 65 61 74 -2 3 -179 27 -393 54 -312 40 -414 57 -513 85 -290 82 -567 223
-791 402 -168 133 -252 226 -499 548 -133 173 -245 317 -250 319 -5 3 -14 0
-19 -7z"/>
<path d="M9441 25491 c-32 -58 4 -156 135 -372 342 -565 798 -916 1369 -1053
214 -52 301 -60 600 -61 277 0 280 0 313 23 32 24 58 59 49 69 -3 3 -177 27
-387 54 -418 53 -535 78 -729 155 -296 117 -567 297 -778 514 -50 52 -193 228
-318 390 -124 162 -230 296 -235 298 -5 2 -13 -6 -19 -17z"/>
<path d="M16741 25479 c-18 -53 -13 -75 40 -181 278 -554 709 -964 1210 -1151
270 -101 466 -137 795 -144 311 -7 346 -3 398 48 21 22 37 42 34 44 -3 3 -180
28 -394 56 -404 52 -446 59 -604 111 -324 105 -606 274 -858 513 -77 73 -163
176 -348 416 -134 176 -249 319 -253 319 -5 0 -14 -14 -20 -31z"/>
<path d="M24050 25490 c-25 -46 -16 -92 39 -200 204 -399 508 -750 826 -952
264 -167 510 -258 850 -314 161 -27 644 -28 692 -1 33 17 70 63 60 73 -2 3
-176 27 -385 54 -488 63 -617 95 -881 221 -199 95 -339 187 -524 347 -125 109
-159 148 -427 497 -122 160 -226 291 -230 293 -5 2 -14 -6 -20 -18z"/>
<path d="M31352 25485 c-23 -49 -14 -89 44 -200 376 -719 916 -1133 1644
-1257 127 -21 550 -37 656 -23 50 6 64 13 98 46 21 22 37 42 34 44 -3 3 -179
28 -393 55 -213 28 -421 59 -464 70 -381 98 -716 284 -998 554 -87 83 -166
177 -353 421 -133 173 -245 315 -249 315 -4 0 -13 -11 -19 -25z"/>
<path d="M3510 23166 c-148 -42 -291 -166 -332 -288 -16 -48 -19 -49 -72 -33
-71 22 -200 19 -279 -5 -166 -51 -301 -197 -342 -371 -28 -121 -15 -228 44
-342 l30 -57 -29 -15 c-42 -22 -127 -110 -152 -158 -46 -87 -60 -133 -65 -222
-9 -154 41 -291 148 -397 67 -68 177 -125 257 -135 l52 -6 0 -86 c1 -233 166
-432 403 -485 50 -12 191 -7 238 8 70 22 139 60 190 104 l46 41 37 -38 c77
-78 187 -121 312 -122 153 0 269 46 369 146 104 104 165 260 150 383 l-6 52
33 0 c88 0 192 52 279 139 159 159 199 374 105 575 -37 80 -109 165 -166 197
l-39 22 21 29 c66 93 88 272 48 400 -42 135 -147 254 -280 316 -66 31 -87 36
-177 40 -79 4 -114 1 -154 -12 -28 -10 -52 -16 -53 -14 -2 2 -16 32 -33 68
-80 172 -256 281 -451 279 -48 0 -107 -6 -132 -13z"/>
<path d="M10799 23161 c-31 -10 -81 -32 -111 -49 -90 -52 -194 -176 -213 -254
-8 -33 -9 -33 -65 -13 -56 20 -201 20 -268 0 -296 -88 -451 -431 -317 -699
l36 -71 -23 -15 c-86 -56 -163 -155 -200 -256 -30 -83 -30 -244 1 -328 65
-181 253 -335 408 -336 l32 0 -6 -64 c-12 -127 42 -262 147 -366 106 -106 213
-150 365 -151 130 0 250 47 329 130 l29 30 48 -43 c51 -46 128 -87 199 -106
60 -16 195 -13 260 6 221 64 379 275 368 489 l-3 73 54 5 c81 9 194 68 263
138 219 223 187 599 -64 767 -38 25 -45 36 -29 46 5 3 20 30 34 60 127 267
-31 605 -322 690 -70 20 -202 21 -270 0 -29 -8 -54 -14 -55 -12 -1 2 -10 24
-20 51 -47 127 -183 244 -331 283 -71 19 -208 17 -276 -5z"/>
<path d="M18118 23165 c-111 -30 -206 -95 -273 -186 -24 -33 -49 -76 -55 -97
-7 -20 -15 -40 -19 -44 -3 -4 -28 -1 -55 7 -65 20 -199 19 -267 -1 -175 -52
-307 -190 -355 -369 -30 -111 -9 -263 50 -359 l24 -40 -52 -36 c-64 -44 -137
-140 -166 -217 -28 -72 -37 -214 -21 -295 36 -173 175 -321 350 -374 24 -8 57
-14 72 -14 l27 0 0 -80 c0 -240 164 -440 405 -494 53 -12 184 -7 239 9 61 17
158 72 201 113 l27 26 28 -26 c42 -41 139 -96 200 -113 63 -19 187 -21 258 -5
137 31 276 143 338 273 37 77 56 179 48 255 l-4 42 34 0 c89 0 216 67 298 157
90 99 131 207 131 343 -1 171 -80 327 -205 406 l-44 28 30 53 c105 186 68 424
-91 584 -103 103 -212 149 -356 149 -45 0 -104 -7 -130 -15 -27 -8 -50 -13
-50 -12 -1 1 -16 33 -33 70 -57 124 -181 225 -323 262 -66 18 -197 18 -261 0z"/>
<path d="M25410 23161 c-151 -49 -273 -157 -317 -282 -10 -27 -21 -49 -24 -49
-4 0 -26 7 -49 15 -61 22 -203 20 -278 -4 -233 -72 -392 -325 -352 -558 9 -57
36 -126 77 -204 2 -3 -13 -17 -34 -31 -140 -93 -224 -272 -210 -443 18 -214
148 -382 345 -447 30 -10 69 -18 86 -18 l32 0 -4 -68 c-10 -171 84 -342 243
-441 184 -116 458 -89 599 58 l29 30 50 -45 c58 -52 99 -75 177 -98 77 -24
209 -22 291 4 216 66 373 285 356 496 l-5 64 32 0 c109 0 263 93 340 204 141
205 121 472 -48 642 -34 33 -71 67 -83 75 l-23 14 35 70 c114 230 27 510 -201
647 -32 20 -83 43 -113 52 -70 21 -214 21 -271 1 -56 -20 -57 -20 -65 13 -20
81 -120 200 -213 255 -114 66 -283 87 -402 48z"/>
<path d="M32727 23165 c-139 -38 -263 -140 -319 -262 -17 -37 -32 -69 -34 -71
-1 -2 -23 4 -48 12 -61 21 -197 21 -267 0 -169 -50 -300 -181 -350 -348 -18
-58 -20 -88 -17 -166 5 -97 21 -152 64 -221 l22 -35 -44 -28 c-197 -125 -264
-418 -149 -647 31 -60 113 -149 173 -188 59 -38 153 -71 200 -71 l35 0 -6 -43
c-10 -73 10 -175 49 -256 65 -131 200 -240 338 -271 71 -16 195 -14 258 5 61
17 158 72 201 113 l27 26 28 -26 c42 -41 139 -96 200 -113 55 -16 186 -21 239
-9 238 53 402 251 403 485 l0 86 52 6 c121 15 273 121 343 241 58 98 81 260
54 375 -25 108 -104 227 -188 281 l-50 33 29 51 c107 189 67 430 -97 593 -99
99 -207 143 -348 143 -45 0 -104 -7 -131 -15 -53 -16 -56 -15 -72 33 -17 51
-80 139 -130 181 -53 46 -135 88 -207 107 -63 17 -195 16 -258 -1z"/>
<path d="M6828 22482 c-571 -273 -1038 -499 -1038 -502 0 -3 96 -111 213 -241
116 -129 233 -259 259 -288 l47 -52 123 62 c379 190 732 444 1034 744 219 218
339 366 491 604 79 123 79 127 22 157 -69 35 -49 43 -1151 -484z"/>
<path d="M14145 22487 c-566 -271 -1036 -496 -1042 -500 -9 -5 69 -99 248
-297 239 -265 262 -288 284 -280 109 41 378 197 580 336 234 160 341 249 553
458 205 201 381 418 517 640 l49 79 -32 28 c-68 61 -16 82 -1157 -464z"/>
<path d="M21438 22483 c-571 -273 -1038 -500 -1038 -503 0 -5 417 -474 510
-573 9 -10 210 89 358 177 557 331 1003 754 1308 1241 68 107 68 112 13 141
-69 35 -48 44 -1151 -483z"/>
<path d="M29715 22947 c-39 -19 -502 -240 -1030 -492 -528 -252 -965 -463
-972 -469 -9 -8 46 -75 223 -271 129 -143 247 -273 263 -288 l27 -28 135 69
c643 331 1188 820 1529 1371 l53 85 -32 28 c-45 40 -105 39 -196 -5z"/>
<path d="M36048 22483 c-571 -273 -1038 -500 -1038 -504 0 -6 410 -467 500
-562 17 -18 21 -17 131 38 496 249 978 631 1305 1035 123 152 294 405 294 435
0 9 -15 24 -32 35 -74 45 -35 61 -1160 -477z"/>
<path d="M7991 22780 c-138 -272 -291 -487 -505 -709 -221 -228 -522 -445
-798 -576 -100 -47 -292 -115 -327 -115 -11 0 -21 -4 -21 -9 0 -12 119 -123
215 -200 252 -203 527 -340 845 -421 144 -37 822 -181 827 -176 5 5 -165 2196
-175 2261 l-8 50 -53 -105z"/>
<path d="M15296 22782 c-229 -464 -596 -864 -1053 -1150 -170 -107 -395 -209
-531 -241 l-74 -17 94 -90 c252 -241 563 -417 914 -519 49 -14 258 -62 464
-106 206 -44 385 -82 398 -86 19 -4 22 -1 22 23 1 61 -173 2269 -179 2276 -4
4 -28 -36 -55 -90z"/>
<path d="M22601 22782 c-227 -453 -560 -824 -994 -1110 -206 -136 -413 -234
-579 -276 l-87 -22 67 -65 c281 -273 634 -470 1007 -563 107 -27 818 -177 821
-173 5 4 -175 2300 -181 2305 -2 2 -26 -41 -54 -96z"/>
<path d="M29917 22803 c-95 -193 -220 -385 -362 -558 -104 -126 -311 -328
-435 -424 -270 -210 -609 -391 -808 -432 -34 -7 -61 -16 -60 -19 8 -18 204
-192 283 -250 232 -173 498 -300 775 -370 145 -37 823 -180 828 -175 7 7 -168
2265 -176 2288 -6 14 -16 -1 -45 -60z"/>
<path d="M37221 22808 c-39 -89 -135 -255 -210 -363 -204 -295 -485 -571 -780
-764 -216 -141 -429 -244 -591 -285 l-91 -23 90 -85 c265 -252 617 -448 970
-538 100 -25 833 -181 837 -178 1 2 -38 514 -87 1138 -49 624 -89 1143 -89
1153 0 35 -18 15 -49 -55z"/>
<path d="M5741 21919 c-18 -52 -13 -75 34 -168 174 -347 431 -669 695 -871
290 -221 580 -344 970 -412 130 -22 493 -36 625 -23 75 7 82 9 119 46 21 22
36 42 33 45 -3 3 -178 28 -389 55 -494 63 -613 93 -893 228 -152 74 -297 163
-417 259 -164 131 -262 239 -506 556 -130 170 -242 311 -248 313 -7 2 -17 -10
-23 -28z"/>
<path d="M13050 21930 c-31 -58 3 -152 136 -371 328 -543 775 -896 1315 -1039
228 -60 345 -74 649 -74 245 -1 279 1 307 17 34 18 70 63 60 73 -3 3 -176 28
-384 55 -208 26 -418 58 -468 70 -215 52 -487 172 -680 301 -256 171 -376 291
-680 688 -125 162 -230 296 -235 298 -5 2 -14 -6 -20 -18z"/>
<path d="M20352 21925 c-21 -47 -13 -86 40 -189 253 -496 620 -875 1043 -1077
201 -96 390 -154 635 -195 111 -18 489 -30 605 -19 76 7 81 9 120 48 l40 41
-35 8 c-19 4 -197 28 -395 53 -198 25 -394 55 -435 66 -399 108 -711 281 -999
555 -79 75 -162 175 -348 416 -134 175 -247 318 -252 318 -4 0 -13 -11 -19
-25z"/>
<path d="M27659 21928 c-27 -50 -15 -97 55 -228 349 -648 824 -1039 1451
-1194 201 -49 310 -60 600 -61 240 0 274 2 302 18 33 18 70 63 60 73 -3 3
-178 28 -389 55 -420 54 -535 79 -727 155 -275 110 -474 234 -701 436 -115
102 -119 107 -400 473 -122 160 -226 291 -230 293 -5 2 -14 -7 -21 -20z"/>
<path d="M34962 21925 c-25 -54 -15 -93 59 -228 222 -411 495 -717 829 -932
155 -100 413 -208 615 -259 203 -51 606 -81 818 -61 73 6 81 9 119 46 23 21
39 42 36 45 -3 3 -178 27 -389 54 -421 54 -434 57 -594 107 -336 107 -620 275
-873 518 -89 85 -166 177 -354 422 -132 172 -243 313 -247 313 -4 0 -13 -11
-19 -25z"/>
<path d="M7236 19558 c-67 -12 -162 -57 -222 -106 -57 -45 -128 -144 -145
-202 l-12 -38 -41 15 c-66 23 -181 28 -253 10 -183 -47 -317 -171 -373 -346
-19 -61 -22 -86 -18 -176 4 -96 8 -111 42 -180 21 -42 36 -77 34 -79 -60 -38
-124 -98 -157 -147 -115 -172 -115 -396 0 -568 82 -122 189 -190 342 -216 l38
-6 -7 -47 c-15 -118 46 -278 146 -378 190 -191 489 -204 686 -31 l44 39 46
-42 c98 -91 257 -135 396 -112 248 43 428 249 428 493 l0 78 38 6 c152 26 300
132 367 265 113 223 46 505 -151 641 l-44 30 30 52 c67 118 76 267 26 401 -63
167 -213 295 -381 327 -73 14 -188 6 -239 -15 -34 -14 -37 -14 -43 2 -40 118
-142 237 -246 286 -106 49 -222 65 -331 44z"/>
<path d="M14534 19555 c-101 -22 -172 -61 -250 -139 -53 -54 -77 -87 -98 -138
l-29 -67 -41 17 c-63 26 -233 22 -307 -6 -287 -112 -421 -442 -284 -700 l33
-63 -37 -23 c-50 -32 -127 -119 -157 -178 -35 -69 -54 -152 -54 -233 0 -249
177 -458 423 -500 l37 -6 0 -78 c0 -244 180 -452 427 -493 140 -23 299 22 397
112 l46 42 44 -39 c152 -134 360 -159 554 -66 81 39 190 150 230 233 35 75 56
183 46 246 l-6 43 38 6 c155 26 261 93 344 217 121 182 110 434 -28 603 -23
29 -92 88 -121 104 -10 6 -5 24 25 87 34 71 38 88 42 180 3 63 0 116 -7 140
-62 203 -192 331 -384 380 -72 19 -188 14 -254 -10 -28 -10 -43 -11 -43 -4 0
6 -14 40 -32 75 -44 89 -130 174 -221 217 -114 55 -214 67 -333 41z"/>
<path d="M21833 19555 c-138 -30 -276 -137 -333 -257 -17 -35 -30 -68 -30 -75
0 -9 -11 -8 -42 3 -24 9 -77 18 -118 21 -224 16 -441 -135 -511 -356 -40 -125
-21 -304 42 -392 10 -15 19 -31 19 -36 0 -4 -20 -21 -45 -36 -58 -37 -117
-109 -154 -187 -137 -289 33 -640 340 -706 l76 -17 -4 -61 c-10 -123 49 -266
149 -365 184 -183 469 -199 667 -40 l64 51 21 -24 c87 -100 283 -158 431 -128
245 49 427 272 414 507 l-4 62 59 10 c169 30 320 164 380 337 40 115 29 269
-26 382 -38 79 -138 187 -189 204 -5 2 6 35 25 73 56 114 67 197 42 315 -22
105 -62 177 -140 256 -132 132 -302 183 -469 139 -75 -19 -74 -20 -82 13 -11
46 -72 136 -123 185 -62 57 -154 104 -241 123 -81 17 -137 17 -218 -1z"/>
<path d="M29145 19556 c-33 -8 -78 -22 -100 -31 -117 -50 -227 -166 -265 -279
l-11 -36 -37 16 c-59 24 -186 29 -261 10 -190 -49 -343 -206 -382 -393 -24
-116 4 -272 62 -354 l20 -28 -38 -24 c-64 -41 -133 -123 -171 -205 -31 -68
-36 -89 -40 -178 -3 -76 0 -115 13 -160 57 -197 209 -335 407 -368 l36 -7 0
-78 c0 -95 13 -145 59 -234 43 -80 134 -170 217 -210 187 -92 401 -67 549 63
l47 42 48 -42 c311 -275 822 -41 824 378 1 45 2 82 3 82 1 0 27 5 58 10 164
31 301 148 368 317 32 79 34 271 5 348 -38 100 -116 198 -197 247 l-30 18 20
29 c63 89 89 262 56 377 -69 240 -286 399 -520 381 -38 -3 -89 -12 -112 -21
l-42 -15 -11 35 c-31 93 -116 197 -206 249 -108 64 -254 88 -369 61z"/>
<path d="M36442 19555 c-76 -17 -182 -72 -235 -123 -47 -45 -114 -146 -122
-184 -8 -33 -5 -33 -87 -12 -123 32 -280 2 -391 -74 -67 -47 -136 -129 -173
-207 -67 -141 -66 -293 2 -430 19 -38 30 -71 25 -73 -27 -9 -95 -67 -129 -111
-49 -61 -76 -118 -97 -196 -70 -271 118 -568 391 -616 l60 -10 -4 -65 c-15
-231 168 -454 413 -504 132 -27 295 13 401 99 l59 47 60 -48 c148 -120 354
-139 533 -51 175 86 295 286 279 464 l-5 57 62 11 c257 45 444 317 397 579
-14 76 -55 172 -98 229 -27 35 -111 107 -133 115 -7 2 2 31 23 73 144 286 -23
630 -343 711 -75 19 -190 15 -257 -10 -32 -11 -43 -12 -43 -3 0 35 -65 144
-117 195 -127 125 -297 175 -471 137z"/>
<path d="M4255 19361 c-50 -21 -2061 -984 -2068 -991 -8 -7 473 -551 507 -574
26 -18 328 148 591 325 451 304 807 665 1077 1094 62 99 63 111 4 139 -36 17
-79 20 -111 7z"/>
<path d="M10545 18877 c-566 -271 -1038 -497 -1047 -502 -15 -9 21 -53 240
-297 141 -158 262 -287 268 -287 17 -1 199 90 322 163 498 292 932 679 1229
1096 94 133 165 251 159 266 -9 23 -69 54 -106 54 -25 0 -316 -135 -1065 -493z"/>
<path d="M18870 19363 c-37 -14 -2066 -985 -2074 -993 -8 -8 500 -580 516
-580 14 0 227 109 328 168 560 327 1028 771 1338 1268 l51 82 -22 20 c-43 39
-93 51 -137 35z"/>
<path d="M26110 19334 c-41 -20 -509 -243 -1040 -496 -531 -253 -968 -464
-972 -467 -8 -7 498 -574 516 -579 31 -8 366 180 586 328 446 302 830 694
1079 1102 59 97 59 107 -6 135 -50 20 -82 16 -163 -23z"/>
<path d="M33448 19348 c-208 -91 -2043 -976 -2043 -985 0 -14 504 -573 516
-573 16 0 219 105 339 175 161 94 356 229 512 353 147 117 436 400 545 532
147 179 320 438 309 465 -8 23 -68 55 -101 55 -16 -1 -51 -10 -77 -22z"/>
<path d="M4386 19173 c-221 -448 -563 -831 -1001 -1119 -203 -134 -483 -265
-600 -281 -25 -3 -48 -9 -50 -13 -7 -12 167 -172 270 -249 253 -188 508 -308
820 -385 189 -46 784 -170 790 -164 7 6 -159 2178 -172 2261 l-8 49 -49 -99z"/>
<path d="M11701 19193 c-39 -86 -150 -276 -218 -373 -276 -392 -645 -711
-1062 -920 -125 -63 -309 -130 -354 -130 -14 0 -28 -4 -31 -8 -6 -10 75 -90
174 -173 228 -193 524 -352 805 -434 84 -24 866 -195 893 -195 7 0 12 14 12
33 1 64 -173 2262 -179 2269 -3 4 -22 -27 -40 -69z"/>
<path d="M18995 19178 c-213 -457 -626 -902 -1096 -1183 -200 -119 -452 -225
-536 -225 -13 0 -23 -4 -23 -9 0 -16 184 -184 280 -255 188 -139 417 -258 635
-330 140 -45 958 -226 970 -214 6 6 -173 2299 -180 2306 -3 3 -25 -38 -50 -90z"/>
<path d="M26297 19173 c-234 -473 -601 -875 -1058 -1158 -181 -112 -486 -245
-562 -245 -14 0 -28 -4 -31 -9 -7 -10 106 -119 209 -203 120 -96 264 -187 420
-264 241 -118 317 -140 1022 -290 123 -26 226 -44 230 -41 8 8 -165 2262 -175
2290 -5 13 -19 -7 -55 -80z"/>
<path d="M33598 19165 c-152 -300 -314 -522 -554 -755 -197 -191 -356 -313
-577 -440 -173 -99 -421 -200 -491 -200 -12 0 -25 -3 -28 -6 -9 -8 177 -181
267 -248 116 -88 257 -173 384 -234 191 -91 366 -142 808 -236 222 -47 410
-86 419 -86 13 0 14 9 10 53 -4 28 -45 545 -91 1147 -47 602 -87 1100 -89
1105 -1 6 -28 -39 -58 -100z"/>
<path d="M2134 18305 c-22 -53 -18 -74 38 -180 378 -728 934 -1156 1648 -1269
255 -40 649 -44 722 -7 30 15 76 66 67 75 -2 2 -173 25 -379 51 -206 26 -418
58 -471 71 -293 72 -577 209 -823 397 -168 128 -283 253 -537 583 -132 173
-243 314 -245 314 -3 0 -12 -16 -20 -35z"/>
<path d="M9442 18315 c-23 -50 -14 -97 34 -191 260 -501 600 -856 1023 -1068
260 -131 521 -200 861 -226 152 -12 425 -5 470 12 51 19 103 88 68 88 -68 0
-802 105 -873 124 -303 84 -572 220 -816 413 -166 132 -249 224 -499 551 -135
177 -248 321 -251 322 -3 0 -11 -11 -17 -25z"/>
<path d="M16746 18312 c-26 -50 -19 -85 35 -189 383 -732 933 -1154 1653
-1268 212 -33 544 -42 684 -18 32 5 102 60 102 80 0 5 -170 31 -377 57 -208
26 -414 57 -458 67 -286 70 -586 210 -810 378 -197 147 -298 256 -570 611
-120 157 -224 291 -231 299 -10 11 -15 8 -28 -17z"/>
<path d="M24050 18315 c-27 -51 -16 -96 56 -231 281 -523 657 -888 1119 -1083
231 -98 450 -148 745 -171 152 -12 425 -5 470 12 52 20 103 88 66 88 -46 0
-791 102 -841 115 -287 75 -571 213 -805 390 -186 141 -281 243 -539 580 -133
173 -245 316 -250 319 -4 3 -14 -6 -21 -19z"/>
<path d="M31356 18319 c-31 -44 -21 -94 45 -217 393 -742 961 -1160 1709
-1256 168 -22 368 -29 511 -18 136 10 168 22 194 72 l14 26 -377 48 c-207 26
-422 59 -477 72 -387 96 -753 302 -1035 584 -48 47 -188 220 -319 390 -128
168 -237 309 -241 313 -4 5 -15 -2 -24 -14z"/>
<path d="M3540 15999 c-147 -29 -282 -132 -346 -266 -20 -40 -37 -73 -39 -73
-2 0 -30 7 -62 15 -73 19 -163 19 -238 0 -315 -82 -479 -448 -325 -722 l30
-53 -37 -24 c-54 -34 -127 -115 -157 -175 -75 -147 -75 -326 0 -474 57 -111
216 -235 324 -253 86 -13 80 -6 80 -93 0 -301 278 -539 577 -493 95 15 187 56
247 112 l46 42 39 -35 c150 -135 366 -162 559 -70 81 39 191 150 229 233 36
76 57 184 47 245 l-6 44 38 6 c252 43 428 248 428 500 0 182 -79 321 -243 432
-2 1 13 37 34 80 36 71 39 84 43 182 3 93 1 115 -21 179 -60 175 -187 292
-367 338 -76 19 -204 15 -261 -10 l-36 -15 -12 38 c-6 22 -30 67 -53 101 -109
164 -318 248 -518 209z"/>
<path d="M10826 15994 c-141 -34 -278 -144 -331 -267 -16 -37 -33 -67 -37 -67
-4 0 -33 7 -65 15 -256 67 -540 -109 -604 -375 -28 -116 -4 -283 52 -361 26
-37 25 -41 -17 -64 -124 -67 -224 -275 -210 -440 20 -247 186 -429 427 -469
l37 -6 -5 -63 c-10 -122 47 -263 144 -361 184 -185 474 -205 673 -45 l62 50
44 -41 c97 -89 260 -135 396 -112 135 23 260 102 337 212 64 90 85 157 85 267
l1 93 35 6 c253 42 430 251 430 508 0 150 -85 313 -205 396 l-43 30 33 67 c71
145 71 285 -1 438 -35 75 -148 192 -221 229 -110 55 -235 70 -346 41 -76 -20
-74 -20 -82 15 -10 45 -76 140 -134 192 -119 107 -296 151 -455 112z"/>
<path d="M18145 15998 c-156 -29 -317 -166 -365 -312 l-11 -35 -37 16 c-51 21
-175 28 -245 14 -192 -40 -358 -206 -397 -398 -24 -112 4 -274 59 -352 l21
-29 -38 -25 c-58 -39 -98 -80 -134 -138 -55 -87 -70 -135 -75 -245 -8 -159 32
-269 140 -381 64 -67 167 -127 235 -138 87 -14 81 -6 81 -99 0 -97 19 -164 72
-251 71 -118 212 -212 356 -237 137 -23 294 21 396 111 l47 43 47 -41 c106
-94 262 -137 401 -112 246 44 423 248 424 489 1 91 -6 83 80 97 61 10 170 71
229 128 60 60 108 141 133 226 18 62 21 193 5 260 -25 108 -107 227 -201 289
l-38 24 20 28 c58 82 86 249 60 361 -44 188 -209 350 -397 390 -70 14 -194 7
-245 -15 l-37 -16 -12 38 c-70 218 -326 357 -574 310z"/>
<path d="M25437 15994 c-83 -20 -163 -62 -224 -117 -54 -50 -116 -141 -128
-189 -8 -33 -7 -32 -82 -13 -221 58 -459 -56 -563 -269 -73 -149 -75 -300 -5
-438 l34 -67 -49 -35 c-89 -64 -154 -164 -185 -281 -29 -112 -16 -226 39 -340
74 -155 203 -250 377 -279 l35 -6 -4 -61 c-13 -176 104 -374 269 -457 74 -36
165 -62 224 -62 121 0 271 56 340 127 l35 36 28 -24 c88 -81 194 -127 309
-136 92 -7 205 20 290 68 156 89 263 282 251 451 l-4 58 35 6 c174 29 303 124
378 280 72 152 67 324 -14 470 -33 60 -104 136 -147 159 -35 19 -45 38 -27 49
20 13 60 118 71 188 52 345 -280 650 -613 563 -76 -20 -74 -21 -88 23 -6 20
-27 60 -46 89 -113 171 -333 256 -536 207z"/>
<path d="M32743 15996 c-163 -41 -307 -167 -352 -308 l-12 -38 -37 16 c-20 9
-73 18 -117 21 -244 16 -461 -146 -525 -392 -27 -106 -2 -275 54 -356 l25 -37
-40 -26 c-82 -55 -151 -144 -185 -239 -23 -63 -34 -182 -23 -252 12 -77 75
-206 131 -267 68 -75 180 -134 288 -152 l36 -6 1 -83 c4 -424 521 -653 834
-370 l39 35 47 -42 c102 -91 259 -135 396 -112 248 43 427 249 427 493 0 87
-7 80 82 94 71 11 172 72 238 142 106 112 146 227 138 388 -4 76 -10 102 -41
167 -37 81 -106 164 -169 204 l-36 23 30 56 c155 287 -23 658 -349 726 -68 14
-193 7 -243 -13 l-35 -14 -37 75 c-57 118 -159 208 -283 252 -75 26 -211 34
-282 15z"/>
<path d="M7790 15766 c-194 -88 -1985 -947 -1993 -955 -7 -7 349 -414 489
-561 l24 -25 97 49 c632 311 1200 810 1551 1361 77 121 78 131 18 159 -51 24
-82 20 -186 -28z"/>
<path d="M14830 15641 c-1306 -623 -1732 -828 -1732 -835 -1 -13 506 -574 518
-575 6 -1 65 26 129 60 649 333 1204 829 1535 1371 58 96 58 103 -1 134 -56
29 -83 19 -449 -155z"/>
<path d="M21450 15315 c-569 -272 -1038 -499 -1043 -504 -9 -9 498 -581 515
-581 16 0 212 102 333 173 308 181 572 384 821 632 227 226 352 380 501 617
l61 96 -28 27 c-22 21 -42 29 -77 32 -46 3 -95 -19 -1083 -492z"/>
<path d="M29765 15796 c-79 -35 -2051 -979 -2057 -985 -7 -6 494 -572 513
-579 5 -2 60 22 121 53 652 330 1208 827 1553 1388 40 65 45 80 34 93 -35 42
-107 55 -164 30z"/>
<path d="M36061 15315 c-569 -272 -1039 -499 -1045 -505 -7 -7 1 -22 25 -48
20 -20 136 -148 258 -284 123 -137 227 -248 232 -248 16 0 198 94 315 163 205
120 419 269 604 421 123 101 401 383 503 511 109 136 289 404 285 424 -5 25
-68 61 -107 61 -27 0 -303 -128 -1070 -495z"/>
<path d="M7997 15619 c-240 -514 -720 -999 -1263 -1274 -124 -63 -321 -135
-368 -135 -14 0 -26 -4 -26 -9 0 -5 41 -48 92 -96 272 -256 607 -438 973 -530
192 -48 814 -179 820 -173 7 6 -172 2298 -179 2306 -3 3 -25 -37 -49 -89z"/>
<path d="M15300 15618 c-265 -549 -747 -1027 -1302 -1293 -128 -61 -281 -115
-327 -115 -17 0 -31 -4 -31 -8 0 -4 26 -33 58 -63 249 -241 528 -409 860 -519
153 -51 956 -229 970 -216 7 8 -167 2275 -177 2294 -4 7 -25 -26 -51 -80z"/>
<path d="M22598 15605 c-31 -60 -77 -146 -103 -190 -276 -467 -763 -903 -1245
-1115 -101 -44 -241 -90 -276 -90 -13 0 -24 -4 -24 -9 0 -17 195 -193 294
-266 242 -175 491 -291 786 -365 165 -41 799 -174 805 -169 4 5 -172 2285
-178 2304 -2 5 -29 -39 -59 -100z"/>
<path d="M29885 15572 c-217 -427 -553 -797 -974 -1074 -219 -144 -450 -253
-595 -280 -36 -7 -66 -15 -66 -19 0 -10 136 -136 215 -201 214 -173 509 -327
769 -402 123 -36 895 -200 903 -193 7 8 -164 2238 -175 2279 -6 25 -14 14 -77
-110z"/>
<path d="M37213 15614 c-249 -488 -592 -862 -1054 -1153 -189 -118 -491 -251
-571 -251 -14 0 -27 -3 -30 -6 -4 -3 28 -39 71 -79 292 -279 611 -454 1011
-555 164 -40 799 -175 804 -169 3 3 -166 2201 -176 2286 -3 24 -11 14 -55 -73z"/>
<path d="M5744 14745 c-22 -54 -18 -73 43 -190 128 -248 277 -457 456 -642
395 -406 850 -607 1457 -643 234 -14 425 -2 469 29 29 21 57 59 49 66 -2 1
-169 24 -373 49 -398 50 -486 67 -665 128 -307 105 -583 275 -821 505 -85 83
-168 182 -351 421 -132 171 -242 312 -244 312 -3 0 -12 -16 -20 -35z"/>
<path d="M13052 14760 c-27 -44 -17 -102 33 -196 208 -386 422 -651 700 -866
292 -227 666 -372 1075 -419 137 -16 535 -15 575 1 55 21 110 90 73 90 -7 0
-184 22 -393 49 -407 53 -519 77 -712 152 -198 78 -419 205 -583 336 -168 134
-250 223 -500 551 -135 177 -247 321 -250 322 -3 0 -11 -9 -18 -20z"/>
<path d="M20360 14765 c-7 -8 -15 -34 -17 -58 -4 -37 2 -56 47 -142 383 -734
923 -1149 1650 -1269 238 -39 631 -42 717 -6 44 19 89 80 59 80 -66 0 -799
104 -871 124 -400 109 -780 334 -1045 619 -37 40 -165 200 -285 357 -262 342
-238 315 -255 295z"/>
<path d="M27662 14763 c-25 -49 -23 -87 12 -158 129 -269 337 -559 537 -749
320 -305 660 -475 1104 -555 246 -44 697 -48 760 -7 25 16 61 63 54 70 -2 2
-170 25 -374 51 -203 25 -406 55 -450 65 -289 67 -589 209 -835 395 -186 141
-281 243 -540 580 -133 173 -245 317 -250 320 -5 3 -13 -2 -18 -12z"/>
<path d="M34962 14755 c-29 -62 -5 -130 119 -342 371 -633 901 -1010 1570
-1117 246 -39 631 -42 716 -5 38 16 75 60 62 73 -2 2 -168 25 -369 50 -393 50
-446 60 -615 113 -336 107 -645 294 -895 543 -49 48 -188 219 -324 395 -130
171 -241 311 -245 313 -4 1 -13 -9 -19 -23z"/>
<path d="M7305 12393 c-67 -6 -143 -27 -199 -55 -102 -52 -204 -164 -235 -260
-7 -21 -14 -38 -16 -38 -1 0 -22 7 -45 15 -114 40 -275 21 -389 -48 -112 -67
-211 -199 -240 -322 -15 -62 -15 -181 0 -238 6 -23 24 -69 41 -102 l30 -60
-23 -15 c-51 -32 -121 -106 -154 -161 -151 -247 -53 -580 209 -709 48 -24 103
-43 134 -47 l53 -6 -7 -56 c-13 -120 47 -272 148 -373 96 -96 192 -138 334
-145 87 -5 112 -2 170 17 80 25 123 50 180 102 l41 38 19 -22 c34 -38 136 -98
202 -118 71 -22 188 -26 262 -9 85 19 185 77 248 143 96 100 142 212 142 346
l0 75 67 13 c183 35 344 198 384 389 16 78 6 213 -21 282 -40 103 -123 202
-207 250 -14 7 -13 12 6 40 60 84 85 237 57 355 -68 286 -372 471 -628 380
-47 -16 -54 -13 -63 25 -7 32 -64 122 -103 164 -90 95 -265 161 -397 150z"/>
<path d="M14574 12389 c-104 -13 -229 -74 -296 -146 -40 -42 -96 -132 -103
-164 -9 -39 -16 -41 -64 -24 -160 56 -355 3 -491 -134 -158 -159 -194 -386
-92 -581 l30 -56 -49 -32 c-57 -38 -118 -111 -153 -186 -107 -225 -21 -519
188 -645 63 -38 155 -71 196 -71 l27 0 5 -102 c6 -112 20 -160 73 -243 151
-236 470 -307 701 -157 32 22 67 48 78 60 l19 21 55 -49 c79 -71 162 -102 284
-108 80 -4 110 0 170 18 140 42 257 143 319 275 33 70 53 179 43 240 l-6 42
53 6 c29 4 84 22 123 40 202 96 316 306 286 526 -18 138 -105 277 -220 353
-23 15 -24 18 -11 40 29 46 51 97 60 139 15 63 13 185 -3 245 -44 165 -186
311 -351 360 -76 23 -212 23 -274 0 -24 -9 -45 -16 -46 -16 -2 0 -9 17 -16 38
-6 20 -26 60 -44 87 -104 161 -294 247 -491 224z"/>
<path d="M21915 12393 c-62 -6 -141 -26 -190 -49 -103 -49 -206 -156 -241
-251 -10 -27 -18 -49 -19 -51 -1 -1 -22 5 -46 14 -70 26 -208 24 -293 -5 -289
-99 -432 -429 -300 -696 32 -66 33 -71 17 -83 -136 -95 -200 -195 -225 -348
-31 -185 68 -399 233 -505 53 -34 154 -69 199 -69 l28 0 -5 -64 c-18 -218 162
-453 387 -505 63 -15 186 -13 246 3 70 18 164 70 204 111 l33 34 46 -41 c90
-79 196 -118 321 -118 146 1 257 46 361 150 105 105 156 231 147 367 -4 63 -4
63 23 63 43 0 150 37 200 68 270 172 320 561 99 781 -28 28 -64 58 -81 67 -17
8 -29 18 -27 22 2 4 16 31 31 59 78 148 70 330 -19 479 -19 32 -50 74 -67 92
-78 82 -209 145 -327 158 -50 5 -132 -7 -207 -31 -16 -5 -23 -3 -23 6 0 8 -11
38 -25 67 -80 172 -288 291 -480 275z"/>
<path d="M29190 12389 c-172 -19 -323 -127 -393 -279 -16 -36 -30 -66 -32 -68
-1 -1 -20 4 -43 12 -161 57 -356 5 -493 -133 -160 -161 -196 -395 -89 -587
l29 -51 -39 -22 c-49 -27 -125 -111 -155 -171 -74 -147 -74 -342 2 -481 38
-70 113 -149 177 -188 64 -38 155 -71 197 -71 l27 0 0 -83 c1 -138 48 -251
147 -350 168 -168 439 -196 634 -66 34 22 68 50 76 62 14 20 15 20 63 -25 85
-80 186 -118 312 -118 145 0 270 51 370 152 100 102 156 253 142 386 -4 41 -3
42 24 42 71 0 193 55 266 119 172 152 219 411 113 621 -30 60 -106 144 -155
171 l-39 22 29 51 c104 187 72 417 -81 581 -130 139 -338 197 -501 139 -23 -8
-42 -13 -43 -12 -1 2 -15 32 -32 68 -88 190 -298 304 -513 279z"/>
<path d="M36495 12388 c-100 -11 -166 -38 -251 -102 -32 -24 -72 -61 -87 -80
-30 -39 -77 -132 -77 -155 0 -9 -7 -11 -22 -6 -77 24 -158 36 -210 30 -249
-27 -437 -218 -463 -470 -9 -79 15 -191 56 -263 30 -53 30 -56 13 -68 -102
-69 -164 -145 -205 -252 -17 -44 -22 -79 -23 -157 -2 -156 33 -249 129 -354
31 -33 77 -74 103 -91 49 -33 157 -70 201 -70 27 0 27 0 23 -61 -10 -132 45
-268 147 -369 105 -104 216 -149 361 -150 125 0 231 39 321 118 l46 41 33 -34
c40 -41 134 -93 204 -111 60 -16 183 -18 246 -3 225 52 405 286 387 505 l-5
64 27 0 c35 0 125 27 173 51 51 26 150 120 187 178 125 194 97 464 -63 621
-30 30 -67 60 -81 68 -15 7 -25 16 -23 20 2 4 18 37 35 73 78 160 59 348 -50
504 -122 172 -363 255 -551 189 -21 -8 -40 -13 -41 -12 -1 2 -9 24 -19 51 -45
120 -176 238 -311 279 -53 16 -148 23 -210 16z"/>
<path d="M4260 12186 c-71 -25 -2080 -990 -2078 -997 2 -4 119 -136 261 -293
l257 -286 113 56 c377 189 754 461 1052 759 207 206 335 364 482 594 l73 114
-22 24 c-12 13 -38 27 -57 33 -43 12 -38 12 -81 -4z"/>
<path d="M11578 12193 c-10 -2 -482 -226 -1050 -498 -700 -334 -1033 -498
-1032 -508 1 -8 115 -141 254 -295 l253 -280 61 28 c196 88 577 329 791 501
161 129 408 368 530 514 160 191 343 461 332 490 -11 28 -100 59 -139 48z"/>
<path d="M18878 12190 c-40 -12 -2088 -992 -2088 -999 0 -5 324 -367 481 -538
l39 -43 108 54 c643 323 1200 815 1549 1371 l62 100 -21 22 c-12 13 -38 27
-57 33 -40 11 -37 11 -73 0z"/>
<path d="M26170 12186 c-33 -12 -2071 -984 -2078 -991 -3 -3 423 -481 497
-557 l26 -27 120 61 c639 324 1179 801 1526 1348 38 60 67 115 64 122 -15 39
-103 64 -155 44z"/>
<path d="M33465 12181 c-27 -11 -482 -226 -1010 -479 -1114 -533 -1055 -504
-1055 -512 0 -3 115 -134 257 -290 161 -180 262 -284 272 -282 27 6 193 93
316 165 574 337 1019 757 1337 1262 63 100 63 105 -7 136 -49 23 -48 23 -110
0z"/>
<path d="M4381 11990 c-99 -195 -212 -369 -344 -529 -93 -113 -301 -320 -407
-405 -268 -214 -626 -408 -843 -456 -32 -8 -56 -17 -55 -21 2 -5 46 -48 98
-95 265 -243 567 -412 907 -509 98 -28 876 -196 881 -190 5 5 -167 2223 -176
2270 l-8 40 -53 -105z"/>
<path d="M11686 11992 c-152 -307 -339 -554 -611 -810 -285 -268 -668 -498
-960 -575 l-87 -23 90 -86 c195 -185 414 -327 672 -436 175 -73 259 -95 760
-202 184 -39 343 -73 353 -76 14 -4 17 1 17 33 1 73 -172 2258 -179 2265 -4 4
-28 -36 -55 -90z"/>
<path d="M18981 11973 c-188 -367 -435 -668 -768 -936 -244 -196 -579 -377
-796 -431 l-87 -22 57 -55 c280 -271 636 -471 1013 -570 79 -20 824 -178 827
-175 5 5 -176 2298 -181 2303 -2 3 -32 -49 -65 -114z"/>
<path d="M26306 12012 c-177 -360 -461 -714 -776 -966 -258 -206 -572 -377
-808 -440 l-84 -22 94 -89 c245 -234 559 -415 883 -510 105 -31 908 -205 915
-199 6 7 -172 2287 -179 2296 -4 4 -24 -27 -45 -70z"/>
<path d="M33611 12018 c-39 -89 -135 -255 -210 -363 -265 -383 -646 -717
-1051 -921 -134 -67 -267 -119 -348 -135 l-63 -12 38 -40 c60 -63 230 -203
323 -266 210 -144 461 -258 705 -320 106 -27 828 -181 832 -178 1 2 -38 516
-87 1142 -49 627 -90 1146 -90 1153 0 30 -19 6 -49 -60z"/>
<path d="M2141 11152 c-6 -11 -13 -37 -17 -59 -5 -34 1 -52 50 -145 360 -688
863 -1100 1516 -1242 213 -46 600 -70 775 -48 74 10 83 14 114 48 32 35 33 38
15 45 -10 4 -185 29 -389 54 -203 25 -404 55 -446 65 -332 84 -663 257 -924
483 -154 133 -165 146 -430 492 -131 171 -241 314 -245 319 -5 4 -13 -1 -19
-12z"/>
<path d="M9442 11145 c-25 -54 -15 -103 43 -211 156 -292 303 -492 506 -689
328 -318 701 -497 1189 -572 167 -26 620 -26 667 0 40 21 72 65 55 76 -6 4
-179 28 -385 54 -205 27 -408 57 -452 68 -383 96 -719 282 -1005 556 -88 84
-166 177 -357 425 -134 175 -245 318 -247 318 -1 0 -8 -11 -14 -25z"/>
<path d="M16745 11137 c-23 -54 -19 -80 25 -166 338 -673 850 -1104 1490
-1255 209 -50 316 -61 595 -61 285 0 298 2 345 62 20 26 20 28 3 35 -10 3
-184 27 -388 53 -392 49 -494 70 -670 135 -297 110 -538 259 -773 477 -83 77
-152 160 -349 417 -136 177 -250 325 -254 330 -5 6 -15 -6 -24 -27z"/>
<path d="M24050 11141 c-21 -52 -14 -93 34 -188 125 -250 280 -468 474 -667
329 -337 721 -533 1222 -612 167 -27 630 -27 677 -1 35 19 70 63 59 74 -3 4
-185 30 -404 59 -218 29 -424 60 -457 69 -419 113 -759 312 -1053 617 -38 40
-170 204 -292 363 -122 160 -228 296 -235 303 -10 11 -14 8 -25 -17z"/>
<path d="M31355 11141 c-25 -50 -18 -88 37 -195 336 -658 842 -1080 1478
-1230 210 -50 316 -61 595 -61 285 0 298 2 345 62 20 26 20 28 3 35 -10 3
-184 27 -388 53 -205 25 -413 57 -467 71 -274 69 -572 214 -806 393 -165 125
-274 242 -495 530 -116 152 -228 298 -249 324 l-37 48 -16 -30z"/>
<path d="M3570 8829 c-128 -19 -241 -83 -322 -184 -26 -32 -55 -79 -65 -104
-22 -62 -24 -64 -66 -46 -58 24 -163 29 -240 11 -175 -41 -309 -157 -374 -323
-22 -57 -26 -85 -27 -173 -1 -113 18 -185 65 -251 18 -26 20 -33 8 -39 -87
-50 -165 -141 -205 -239 -32 -79 -43 -207 -25 -294 40 -192 202 -354 388 -390
l61 -11 4 -103 c4 -96 7 -108 46 -187 67 -135 201 -243 342 -275 152 -35 330
9 444 110 l41 37 47 -43 c233 -209 633 -122 772 168 39 80 60 188 51 251 l-7
41 67 13 c93 17 179 64 251 136 169 169 198 431 70 630 -32 50 -96 114 -146
148 -23 15 -24 18 -11 40 29 46 51 97 60 139 15 62 13 185 -3 244 -43 161
-175 302 -335 357 -81 28 -221 30 -290 4 -24 -9 -45 -16 -46 -16 -2 0 -9 17
-16 38 -31 96 -133 209 -235 260 -93 46 -208 66 -304 51z"/>
<path d="M10874 8829 c-164 -20 -336 -150 -390 -296 -10 -27 -18 -49 -19 -51
-1 -1 -20 4 -43 12 -139 49 -314 17 -445 -82 -190 -144 -255 -408 -151 -617
31 -63 33 -71 18 -80 -159 -96 -252 -294 -227 -485 22 -167 126 -315 274 -389
46 -23 101 -42 133 -46 l54 -7 -5 -54 c-8 -71 12 -163 50 -243 39 -80 142
-185 218 -223 192 -96 419 -70 563 63 l43 39 19 -22 c34 -38 136 -98 202 -118
71 -22 188 -26 262 -9 81 19 172 71 241 139 105 104 156 230 147 367 -4 63 -4
63 23 63 44 0 152 37 201 70 62 41 153 140 182 198 110 219 49 495 -139 630
-27 20 -51 36 -52 37 -1 0 13 30 31 67 71 140 71 292 -1 438 -108 220 -377
341 -592 265 l-40 -14 -30 66 c-94 199 -300 310 -527 282z"/>
<path d="M18184 8830 c-171 -25 -319 -132 -387 -280 -17 -36 -31 -66 -32 -68
-1 -1 -22 5 -46 14 -64 24 -209 24 -278 0 -171 -59 -301 -196 -346 -367 -30
-112 -12 -254 45 -355 l28 -50 -35 -19 c-45 -25 -128 -116 -157 -174 -78 -152
-75 -344 7 -490 68 -122 200 -218 335 -244 l60 -11 1 -82 c0 -185 107 -355
275 -438 86 -42 140 -55 230 -56 127 0 234 39 317 117 l49 45 52 -47 c232
-209 629 -122 772 169 37 76 58 185 49 253 l-5 38 68 13 c226 43 396 252 395
486 -1 104 -8 138 -46 221 -35 77 -114 170 -168 200 l-35 19 28 50 c82 147 80
337 -6 484 -62 106 -176 198 -294 238 -71 24 -216 24 -279 0 -24 -9 -45 -15
-46 -14 -1 2 -16 33 -33 71 -87 188 -310 307 -518 277z"/>
<path d="M25485 8829 c-112 -14 -214 -66 -298 -153 -45 -45 -107 -152 -107
-183 0 -16 1 -16 -49 1 -193 69 -444 -24 -562 -207 -101 -156 -112 -356 -29
-504 17 -30 30 -56 28 -57 -39 -24 -115 -89 -139 -118 -42 -53 -87 -152 -100
-223 -20 -104 2 -241 55 -343 23 -45 120 -146 174 -182 49 -33 157 -70 201
-70 27 0 27 0 23 -61 -10 -131 44 -266 148 -369 36 -36 90 -77 120 -92 192
-95 411 -71 560 60 l45 40 45 -40 c148 -131 368 -155 560 -60 160 79 281 286
268 456 l-5 62 61 11 c166 28 319 163 377 331 44 128 35 259 -27 389 -35 74
-112 161 -167 190 -16 8 -27 17 -25 21 2 4 18 37 35 73 131 267 -12 590 -306
691 -81 28 -221 30 -290 4 -24 -9 -44 -16 -46 -16 -1 0 -7 18 -14 39 -29 99
-149 225 -260 272 -85 37 -181 50 -276 38z"/>
<path d="M32820 8834 c-199 -29 -340 -125 -412 -281 -17 -37 -32 -69 -33 -71
-1 -1 -22 5 -46 14 -69 26 -208 24 -291 -4 -157 -54 -279 -182 -329 -346 -18
-56 -21 -85 -17 -167 4 -90 9 -106 43 -176 l38 -77 -24 -15 c-154 -100 -247
-310 -218 -493 35 -215 192 -382 394 -420 l67 -13 -6 -40 c-23 -170 96 -385
261 -473 186 -99 416 -78 558 50 l49 45 53 -44 c98 -79 194 -113 318 -113 91
1 144 13 231 56 168 83 274 251 274 436 l0 83 62 12 c227 43 397 252 398 488
0 139 -41 249 -128 346 -24 27 -61 58 -82 70 l-38 22 34 66 c39 78 53 135 54
213 1 221 -144 419 -362 494 -70 25 -226 25 -282 1 -44 -20 -51 -17 -61 20
-18 76 -100 177 -190 235 -85 56 -232 94 -315 82z"/>
<path d="M7820 8606 c-67 -29 -1831 -872 -1973 -942 -31 -15 -56 -32 -55 -35
8 -22 512 -569 524 -569 20 0 187 85 320 162 567 332 1021 759 1331 1253 l62
100 -21 22 c-19 20 -74 43 -103 43 -5 0 -44 -15 -85 -34z"/>
<path d="M15175 8631 c-23 -10 -2053 -979 -2073 -990 -9 -5 68 -97 249 -299
l262 -291 121 61 c547 274 1068 706 1401 1163 107 146 197 294 191 311 -7 18
-82 54 -111 53 -11 0 -29 -4 -40 -8z"/>
<path d="M22470 8625 c-92 -35 -2065 -986 -2065 -995 0 -13 493 -560 511 -567
31 -12 342 158 564 307 464 312 828 680 1102 1115 l57 90 -21 23 c-19 20 -77
43 -103 41 -5 0 -26 -6 -45 -14z"/>
<path d="M29700 8591 c-153 -71 -1993 -951 -1998 -956 -2 -2 114 -134 258
-294 l262 -290 117 58 c248 125 519 300 751 486 226 181 513 482 676 710 89
124 174 265 168 280 -7 17 -82 55 -110 55 -10 0 -66 -22 -124 -49z"/>
<path d="M37098 8634 c-35 -10 -2083 -993 -2085 -1001 -3 -7 114 -140 512
-581 1 -1 58 26 126 61 564 288 1056 698 1404 1171 75 102 185 276 185 292 0
31 -96 70 -142 58z"/>
<path d="M7982 8415 c-204 -395 -476 -718 -834 -987 -241 -181 -568 -350 -750
-388 -32 -6 -58 -15 -58 -19 0 -13 209 -196 295 -259 186 -136 400 -245 619
-317 115 -38 964 -230 974 -220 4 4 -166 2200 -176 2260 l-8 50 -62 -120z"/>
<path d="M15306 8452 c-209 -427 -550 -819 -946 -1091 -212 -146 -469 -272
-637 -314 l-86 -21 90 -86 c268 -257 615 -449 978 -539 44 -11 240 -54 435
-96 195 -42 363 -78 373 -81 14 -4 17 1 17 28 1 67 -173 2263 -179 2270 -4 4
-24 -27 -45 -70z"/>
<path d="M22621 8476 c-29 -72 -150 -281 -220 -381 -264 -381 -641 -712 -1040
-914 -138 -70 -301 -133 -379 -146 l-44 -7 29 -30 c61 -66 251 -221 352 -289
145 -97 369 -206 537 -262 92 -30 282 -76 559 -136 231 -49 421 -89 422 -87 2
1 -38 519 -87 1150 -50 631 -90 1149 -90 1152 0 2 -4 4 -8 4 -5 0 -18 -24 -31
-54z"/>
<path d="M29909 8445 c-227 -479 -654 -932 -1141 -1210 -151 -85 -323 -160
-434 -187 l-87 -22 93 -89 c263 -252 604 -441 960 -533 116 -29 835 -182 839
-178 7 7 -170 2267 -179 2289 -7 17 -15 5 -51 -70z"/>
<path d="M37187 8395 c-210 -417 -553 -795 -966 -1067 -211 -139 -411 -235
-586 -281 l-86 -23 73 -70 c324 -306 671 -484 1148 -588 483 -106 666 -143
672 -137 3 3 -34 512 -83 1131 -48 619 -88 1135 -89 1148 0 12 -3 22 -7 22 -5
0 -39 -61 -76 -135z"/>
<path d="M5745 7577 c-24 -57 -19 -80 44 -200 141 -270 293 -480 486 -672 331
-330 712 -515 1215 -592 87 -13 177 -18 370 -18 279 0 293 3 340 62 20 26 20
28 3 35 -10 4 -184 28 -388 53 -230 29 -406 56 -465 72 -392 105 -724 294
-1023 582 -32 31 -169 200 -304 376 -135 176 -249 324 -254 329 -5 6 -15 -6
-24 -27z"/>
<path d="M13050 7581 c-28 -70 -8 -126 127 -354 127 -214 252 -374 414 -532
336 -327 704 -505 1199 -582 161 -25 607 -26 662 -1 39 18 77 64 62 77 -5 4
-178 29 -384 55 -364 46 -490 70 -635 119 -228 79 -448 197 -649 350 -168 128
-277 246 -533 580 -134 174 -246 317 -247 317 -2 0 -9 -13 -16 -29z"/>
<path d="M20355 7581 c-24 -48 -18 -85 30 -180 130 -260 300 -497 495 -691
335 -335 716 -522 1215 -597 92 -13 180 -18 375 -18 279 1 294 3 340 62 20 26
20 28 3 35 -10 4 -184 28 -388 53 -470 59 -617 97 -890 230 -148 72 -239 128
-375 231 -183 139 -270 231 -515 550 -125 165 -239 312 -251 327 l-23 28 -16
-30z"/>
<path d="M27662 7583 c-26 -64 -24 -76 26 -178 162 -330 406 -641 667 -850
295 -237 627 -377 1045 -442 167 -26 609 -26 660 0 39 20 77 65 64 76 -5 4
-179 29 -387 55 -519 65 -698 115 -987 276 -336 187 -485 326 -832 778 -132
171 -241 312 -243 312 -1 0 -7 -12 -13 -27z"/>
<path d="M34966 7588 c-29 -41 -20 -97 30 -194 349 -672 846 -1088 1484 -1238
204 -49 325 -61 600 -61 281 1 296 3 340 65 l21 29 -23 5 c-13 3 -187 26 -388
52 -388 48 -490 69 -665 134 -302 112 -558 270 -783 485 -78 74 -164 177 -352
422 -243 317 -249 323 -264 301z"/>
</g>
</svg>
